<?xml version="1.0" encoding="UTF-8"?>
<!DOCTYPE svg PUBLIC "-//W3C//DTD SVG 1.1//EN" "http://www.w3.org/Graphics/SVG/1.1/DTD/svg11.dtd">
<svg version="1.1" xmlns="http://www.w3.org/2000/svg" xmlns:xlink="http://www.w3.org/1999/xlink" x="0" y="0" width="32" height="32" viewBox="0, 0, 32, 32">
  <g id="Layer_1">
    <g>
      <g id="celem">
        <path d="M31,16 C31,24.284 24.284,31 16,31 C7.716,31 1,24.284 1,16 C1,7.716 7.716,1 16,1 C24.284,1 31,7.716 31,16 z" fill="#FFFFFF"/>
        <path d="M31,16 C31,24.284 24.284,31 16,31 C7.716,31 1,24.284 1,16 C1,7.716 7.716,1 16,1 C24.284,1 31,7.716 31,16 z" fill-opacity="0" stroke="#000000" stroke-width="1"/>
      </g>
      <path d="M10,10 L22,22 M10,22 L22,10" fill-opacity="0" stroke="#000000" stroke-width="1"/>
    </g>
  </g>
</svg>
